<svg xmlns="http://www.w3.org/2000/svg" version="1.1" xmlns:xlink="http://www.w3.org/1999/xlink" xmlns:svgjs="http://svgjs.com/svgjs" width="1440" height="560" preserveAspectRatio="none" viewBox="0 0 1440 560"><g mask="url(&quot;#SvgjsMask1002&quot;)" fill="none"><rect width="1440" height="560" x="0" y="0" fill="url(#SvgjsLinearGradient1003)"></rect><path d="M1440 0L954.35 0L1440 240.64z" fill="rgba(255, 255, 255, .1)"></path><path d="M954.35 0L1440 240.64L1440 410.25L938.62 0z" fill="rgba(255, 255, 255, .075)"></path><path d="M938.62 0L1440 410.25L1440 479.44L370.4 0z" fill="rgba(255, 255, 255, .05)"></path><path d="M370.4000000000001 0L1440 479.44L1440 492.11L137.3100000000001 0z" fill="rgba(255, 255, 255, .025)"></path><path d="M0 560L64.81 560L0 499.72z" fill="rgba(0, 0, 0, .1)"></path><path d="M0 499.72L64.81 560L511.43 560L0 229.60000000000002z" fill="rgba(0, 0, 0, .075)"></path><path d="M0 229.60000000000002L511.43 560L850.3 560L0 145.18z" fill="rgba(0, 0, 0, .05)"></path><path d="M0 145.18L850.3 560L995.2199999999999 560L0 110.77000000000001z" fill="rgba(0, 0, 0, .025)"></path></g><defs><mask id="SvgjsMask1002"><rect width="1440" height="560" fill="#ffffff"></rect></mask><linearGradient x1="15.28%" y1="-39.29%" x2="84.72%" y2="139.29%" gradientUnits="userSpaceOnUse" id="SvgjsLinearGradient1003"><stop stop-color="#0e2a47" offset="0"></stop><stop stop-color="#00459e" offset="1"></stop></linearGradient></defs></svg>