<svg xmlns="http://www.w3.org/2000/svg" version="1.1" xmlns:xlink="http://www.w3.org/1999/xlink" xmlns:svgjs="http://svgjs.com/svgjs" width="1440" height="250" preserveAspectRatio="none" viewBox="0 0 1440 250"><g mask="url(&quot;#SvgjsMask1003&quot;)" fill="none"><rect width="1440" height="250" x="0" y="0" fill="rgba(234, 236, 243, 1)"></rect><path d="M27 250L277 0L604 0L354 250z" fill="url(#SvgjsLinearGradient1004)"></path><path d="M240.60000000000002 250L490.6 0L753.1 0L503.1 250z" fill="url(#SvgjsLinearGradient1004)"></path><path d="M502.20000000000005 250L752.2 0L867.7 0L617.7 250z" fill="url(#SvgjsLinearGradient1004)"></path><path d="M732.8000000000001 250L982.8000000000001 0L1044.3000000000002 0L794.3000000000001 250z" fill="url(#SvgjsLinearGradient1004)"></path><path d="M1422 250L1172 0L1061 0L1311 250z" fill="url(#SvgjsLinearGradient1005)"></path><path d="M1179.4 250L929.4000000000001 0L797.4000000000001 0L1047.4 250z" fill="url(#SvgjsLinearGradient1005)"></path><path d="M919.8 250L669.8 0L489.79999999999995 0L739.8 250z" fill="url(#SvgjsLinearGradient1005)"></path><path d="M698.1999999999999 250L448.19999999999993 0L193.19999999999993 0L443.19999999999993 250z" fill="url(#SvgjsLinearGradient1005)"></path><path d="M1283.793928003693 250L1440 93.79392800369317L1440 250z" fill="url(#SvgjsLinearGradient1004)"></path><path d="M0 250L156.20607199630683 250L 0 93.79392800369317z" fill="url(#SvgjsLinearGradient1005)"></path></g><defs><mask id="SvgjsMask1003"><rect width="1440" height="250" fill="#ffffff"></rect></mask><linearGradient x1="0%" y1="100%" x2="100%" y2="0%" id="SvgjsLinearGradient1004"><stop stop-color="rgba(248, 250, 253, 1)" offset="0"></stop><stop stop-opacity="0" stop-color="rgba(248, 250, 253, 1)" offset="0.66"></stop></linearGradient><linearGradient x1="100%" y1="100%" x2="0%" y2="0%" id="SvgjsLinearGradient1005"><stop stop-color="rgba(248, 250, 253, 1)" offset="0"></stop><stop stop-opacity="0" stop-color="rgba(248, 250, 253, 1)" offset="0.66"></stop></linearGradient></defs></svg>