<svg xmlns="http://www.w3.org/2000/svg" version="1.1" xmlns:xlink="http://www.w3.org/1999/xlink" xmlns:svgjs="http://svgjs.com/svgjs" width="1440" height="250" preserveAspectRatio="none" viewBox="0 0 1440 250"><g mask="url(&quot;#SvgjsMask1045&quot;)" fill="none"><rect width="1440" height="250" x="0" y="0" fill="rgba(248, 250, 253, 1)"></rect><path d="M20 250L270 0L555 0L305 250z" fill="url(#SvgjsLinearGradient1046)"></path><path d="M239.60000000000002 250L489.6 0L777.6 0L527.6 250z" fill="url(#SvgjsLinearGradient1046)"></path><path d="M490.20000000000005 250L740.2 0L951.7 0L701.7 250z" fill="url(#SvgjsLinearGradient1046)"></path><path d="M732.8000000000001 250L982.8000000000001 0L1141.8000000000002 0L891.8000000000001 250z" fill="url(#SvgjsLinearGradient1046)"></path><path d="M1394 250L1144 0L841 0L1091 250z" fill="url(#SvgjsLinearGradient1047)"></path><path d="M1158.4 250L908.4000000000001 0L870.9000000000001 0L1120.9 250z" fill="url(#SvgjsLinearGradient1047)"></path><path d="M943.8 250L693.8 0L566.3 0L816.3 250z" fill="url(#SvgjsLinearGradient1047)"></path><path d="M695.1999999999999 250L445.19999999999993 0L349.19999999999993 0L599.1999999999999 250z" fill="url(#SvgjsLinearGradient1047)"></path><path d="M1215.6296056051842 250L1440 25.629605605184224L1440 250z" fill="url(#SvgjsLinearGradient1046)"></path><path d="M0 250L224.37039439481578 250L 0 25.629605605184224z" fill="url(#SvgjsLinearGradient1047)"></path></g><defs><mask id="SvgjsMask1045"><rect width="1440" height="250" fill="#ffffff"></rect></mask><linearGradient x1="0%" y1="100%" x2="100%" y2="0%" id="SvgjsLinearGradient1046"><stop stop-color="rgba(231, 234, 243, 1)" offset="0"></stop><stop stop-opacity="0" stop-color="rgba(231, 234, 243, 1)" offset="0.66"></stop></linearGradient><linearGradient x1="100%" y1="100%" x2="0%" y2="0%" id="SvgjsLinearGradient1047"><stop stop-color="rgba(231, 234, 243, 1)" offset="0"></stop><stop stop-opacity="0" stop-color="rgba(231, 234, 243, 1)" offset="0.66"></stop></linearGradient></defs></svg>