<svg xmlns="http://www.w3.org/2000/svg" version="1.1" xmlns:xlink="http://www.w3.org/1999/xlink" xmlns:svgjs="http://svgjs.com/svgjs" width="1440" height="250" preserveAspectRatio="none" viewBox="0 0 1440 250"><g mask="url(&quot;#SvgjsMask1069&quot;)" fill="none"><path d="M32 250L282 0L394.5 0L144.5 250z" fill="url(#SvgjsLinearGradient1070)"></path><path d="M246.60000000000002 250L496.6 0L690.1 0L440.1 250z" fill="url(#SvgjsLinearGradient1070)"></path><path d="M485.20000000000005 250L735.2 0L828.2 0L578.2 250z" fill="url(#SvgjsLinearGradient1070)"></path><path d="M747.8000000000001 250L997.8000000000001 0L1036.8000000000002 0L786.8000000000001 250z" fill="url(#SvgjsLinearGradient1070)"></path><path d="M1432 250L1182 0L945 0L1195 250z" fill="url(#SvgjsLinearGradient1071)"></path><path d="M1189.4 250L939.4000000000001 0L714.4000000000001 0L964.4000000000001 250z" fill="url(#SvgjsLinearGradient1071)"></path><path d="M958.8 250L708.8 0L432.79999999999995 0L682.8 250z" fill="url(#SvgjsLinearGradient1071)"></path><path d="M687.1999999999999 250L437.19999999999993 0L201.69999999999993 0L451.69999999999993 250z" fill="url(#SvgjsLinearGradient1071)"></path><path d="M1194.295263592438 250L1440 4.295263592438118L1440 250z" fill="url(#SvgjsLinearGradient1070)"></path><path d="M0 250L245.70473640756188 250L 0 4.295263592438118z" fill="url(#SvgjsLinearGradient1071)"></path></g><defs><mask id="SvgjsMask1069"><rect width="1440" height="250" fill="#ffffff"></rect></mask><linearGradient x1="0%" y1="100%" x2="100%" y2="0%" id="SvgjsLinearGradient1070"><stop stop-color="rgba(231, 234, 243, 1)" offset="0"></stop><stop stop-opacity="0" stop-color="rgba(231, 234, 243, 1)" offset="0.66"></stop></linearGradient><linearGradient x1="100%" y1="100%" x2="0%" y2="0%" id="SvgjsLinearGradient1071"><stop stop-color="rgba(231, 234, 243, 1)" offset="0"></stop><stop stop-opacity="0" stop-color="rgba(231, 234, 243, 1)" offset="0.66"></stop></linearGradient></defs></svg>