<svg xmlns="http://www.w3.org/2000/svg" version="1.1" xmlns:xlink="http://www.w3.org/1999/xlink" xmlns:svgjs="http://svgjs.com/svgjs" width="1440" height="250" preserveAspectRatio="none" viewBox="0 0 1440 250"><g mask="url(&quot;#SvgjsMask1006&quot;)" fill="none"><path d="M19 250L269 0L548 0L298 250z" fill="url(#SvgjsLinearGradient1007)"></path><path d="M255.60000000000002 250L505.6 0L708.1 0L458.1 250z" fill="url(#SvgjsLinearGradient1007)"></path><path d="M483.20000000000005 250L733.2 0L890.7 0L640.7 250z" fill="url(#SvgjsLinearGradient1007)"></path><path d="M723.8000000000001 250L973.8000000000001 0L1027.8000000000002 0L777.8000000000001 250z" fill="url(#SvgjsLinearGradient1007)"></path><path d="M1400 250L1150 0L1066 0L1316 250z" fill="url(#SvgjsLinearGradient1008)"></path><path d="M1158.4 250L908.4000000000001 0L651.9000000000001 0L901.9000000000001 250z" fill="url(#SvgjsLinearGradient1008)"></path><path d="M941.8 250L691.8 0L409.79999999999995 0L659.8 250z" fill="url(#SvgjsLinearGradient1008)"></path><path d="M712.1999999999999 250L462.19999999999993 0L180.19999999999993 0L430.19999999999993 250z" fill="url(#SvgjsLinearGradient1008)"></path><path d="M1215.8358975751491 250L1440 25.835897575149204L1440 250z" fill="url(#SvgjsLinearGradient1007)"></path><path d="M0 250L224.1641024248508 250L 0 25.835897575149204z" fill="url(#SvgjsLinearGradient1008)"></path></g><defs><mask id="SvgjsMask1006"><rect width="1440" height="250" fill="#ffffff"></rect></mask><linearGradient x1="0%" y1="100%" x2="100%" y2="0%" id="SvgjsLinearGradient1007"><stop stop-color="rgba(255, 248, 250, 1)" offset="0"></stop><stop stop-opacity="0" stop-color="rgba(255, 248, 250, 1)" offset="0.66"></stop></linearGradient><linearGradient x1="100%" y1="100%" x2="0%" y2="0%" id="SvgjsLinearGradient1008"><stop stop-color="rgba(255, 248, 250, 1)" offset="0"></stop><stop stop-opacity="0" stop-color="rgba(255, 248, 250, 1)" offset="0.66"></stop></linearGradient></defs></svg>