<svg height="512" viewBox="0 0 32 32" width="512" xmlns="http://www.w3.org/2000/svg"><g id="Flat_Color" data-name="Flat Color"><path d="m7 5a2 2 0 0 1 2-2h14a2 2 0 0 1 2 2v23a1 1 0 0 1 -1.41.91l-7.18-3.19a1 1 0 0 0 -.82 0l-7.18 3.19a1 1 0 0 1 -1.41-.91z" fill="#e63946"/><path d="m9 3h14a2 2 0 0 1 2 2v2a0 0 0 0 1 0 0h-18a0 0 0 0 1 0 0v-2a2 2 0 0 1 2-2z" fill="#c9273a"/><path d="m14.46 14.38-3.46.5 2.5 2.43-.59 3.44 3.09-1.62 3.09 1.62-.59-3.44 2.5-2.43-3.45-.5-1.55-3.14z" fill="#fcbf49"/></g></svg>