<?xml version="1.0" encoding="iso-8859-1"?>
<!-- Generator: Adobe Illustrator 21.0.0, SVG Export Plug-In . SVG Version: 6.00 Build 0)  -->
<svg version="1.1" id="Capa_1" xmlns="http://www.w3.org/2000/svg" xmlns:xlink="http://www.w3.org/1999/xlink" x="0px" y="0px"
	 viewBox="0 0 512 512" style="enable-background:new 0 0 512 512;" xml:space="preserve">
<g>
	<polygon style="fill:#FA502E;" points="152.587,265.686 82.361,479.263 142.608,462.553 180.419,512 249.295,301.513 	"/>
	<polygon style="fill:#FA502E;" points="359.207,265.275 262.257,300.594 331.586,511.981 369.383,462.553 429.639,479.266 	"/>
</g>
<polygon style="fill:#CB072C;" points="359.207,265.275 262.257,300.594 331.586,511.981 369.383,462.553 429.639,479.266 "/>
<polygon style="fill:#FABE3D;" points="419.942,163.946 400.944,135.113 407.508,101.182 378.868,81.844 371.927,48.016 
	338.098,41.072 318.76,12.433 284.828,18.998 255.996,0 227.164,18.998 193.231,12.432 173.893,41.072 140.065,48.015 
	133.123,81.844 104.483,101.182 111.048,135.113 92.049,163.946 111.048,192.778 104.483,226.71 133.123,246.047 140.064,279.875 
	173.893,286.819 193.231,315.458 227.163,308.893 255.996,327.891 284.828,308.894 318.76,315.459 338.098,286.819 371.926,279.876 
	378.868,246.047 407.508,226.71 400.944,192.778 "/>
<polygon style="fill:#FD982C;" points="419.942,163.946 400.944,135.113 407.508,101.182 378.868,81.844 371.927,48.016 
	338.098,41.072 318.76,12.433 284.828,18.998 255.996,0 255.996,327.891 284.828,308.894 318.76,315.459 338.098,286.819 
	371.926,279.876 378.868,246.047 407.508,226.71 400.944,192.778 "/>
<path style="fill:#FFF2B4;" d="M255.996,72.782c-50.268,0-91.164,40.896-91.164,91.164s40.896,91.164,91.164,91.164
	s91.164-40.896,91.164-91.164S306.264,72.782,255.996,72.782z"/>
<path style="fill:#FDDA50;" d="M255.996,72.782v182.327c50.268,0,91.164-40.896,91.164-91.164S306.264,72.782,255.996,72.782z"/>
<g>
</g>
<g>
</g>
<g>
</g>
<g>
</g>
<g>
</g>
<g>
</g>
<g>
</g>
<g>
</g>
<g>
</g>
<g>
</g>
<g>
</g>
<g>
</g>
<g>
</g>
<g>
</g>
<g>
</g>
</svg>
