<svg xmlns="http://www.w3.org/2000/svg" version="1.1" xmlns:xlink="http://www.w3.org/1999/xlink" xmlns:svgjs="http://svgjs.com/svgjs" width="1440" height="250" preserveAspectRatio="none" viewBox="0 0 1440 250"><g mask="url(&quot;#SvgjsMask1000&quot;)" fill="none"><rect width="1440" height="250" x="0" y="0" fill="#0e2a47"></rect><path d="M36 250L286 0L365.5 0L115.5 250z" fill="url(#SvgjsLinearGradient1001)"></path><path d="M248.60000000000002 250L498.6 0L719.1 0L469.1 250z" fill="url(#SvgjsLinearGradient1001)"></path><path d="M485.20000000000005 250L735.2 0L900.2 0L650.2 250z" fill="url(#SvgjsLinearGradient1001)"></path><path d="M744.8000000000001 250L994.8000000000001 0L1083.3000000000002 0L833.3000000000001 250z" fill="url(#SvgjsLinearGradient1001)"></path><path d="M1419 250L1169 0L1070 0L1320 250z" fill="url(#SvgjsLinearGradient1002)"></path><path d="M1177.4 250L927.4000000000001 0L664.9000000000001 0L914.9000000000001 250z" fill="url(#SvgjsLinearGradient1002)"></path><path d="M941.8 250L691.8 0L399.29999999999995 0L649.3 250z" fill="url(#SvgjsLinearGradient1002)"></path><path d="M722.1999999999999 250L472.19999999999993 0L403.19999999999993 0L653.1999999999999 250z" fill="url(#SvgjsLinearGradient1002)"></path><path d="M1197.8344504850756 250L1440 7.834450485075706L1440 250z" fill="url(#SvgjsLinearGradient1001)"></path><path d="M0 250L242.1655495149243 250L 0 7.834450485075706z" fill="url(#SvgjsLinearGradient1002)"></path></g><defs><mask id="SvgjsMask1000"><rect width="1440" height="250" fill="#ffffff"></rect></mask><linearGradient x1="0%" y1="100%" x2="100%" y2="0%" id="SvgjsLinearGradient1001"><stop stop-color="rgba(15, 70, 185, 0.2)" offset="0"></stop><stop stop-opacity="0" stop-color="rgba(15, 70, 185, 0.2)" offset="0.66"></stop></linearGradient><linearGradient x1="100%" y1="100%" x2="0%" y2="0%" id="SvgjsLinearGradient1002"><stop stop-color="rgba(15, 70, 185, 0.2)" offset="0"></stop><stop stop-opacity="0" stop-color="rgba(15, 70, 185, 0.2)" offset="0.66"></stop></linearGradient></defs></svg>