<svg height="512" viewBox="0 0 128 128" width="512" xmlns="http://www.w3.org/2000/svg"><g><path d="m109 38.229v10.5a6.986 6.986 0 0 0 -6.98-6.98h-27.24a6 6 0 0 1 -5.41-3.41l-3.74-7.78a4.826 4.826 0 0 0 -.3-.55h35.45a8.22 8.22 0 0 1 8.22 8.22z" fill="#1058e8"/><path d="m109 48.729v45.13a6.988 6.988 0 0 1 -6.98 6.99h-76.04a6.988 6.988 0 0 1 -6.98-6.99v-59.72a6.988 6.988 0 0 1 6.98-6.99h34.24a6 6 0 0 1 5.11 2.86 4.826 4.826 0 0 1 .3.55l3.74 7.78a6 6 0 0 0 5.41 3.41h27.24a6.986 6.986 0 0 1 6.98 6.98z" fill="#3f8efc"/></g></svg>